<svg xmlns="http://www.w3.org/2000/svg" viewBox="0 0 1254 1254" width="1254" height="1254">
  <g fill="#FD7603" transform="translate(0,1254) scale(0.1,-0.1)">
  <path d="M3780 12343 c-276 -27 -481 -83 -691 -188 -582 -292 -968 -863 -1028 -1520 -15 -158 -15 -4999 -1 -5165 14 -157 41 -293 86 -427 103 -309 259 -567 469 -779 167 -168 313 -271 527 -374 194 -93 378 -147 603 -179 99 -14 4969 -14 5090 -1 511 59 976 322 1276 723 221 295 354 629 389 972 8 78 10 865 8 2730 l-3 2620 -23 106 c-173 812 -833 1408 -1637 1478 -110 10 -4971 14 -5065 4z m5067 -698 c530 -101 932 -539 1003 -1095 7 -59 10 -689 8 -2092 l-3 -2007 -42 62 c-23 34 -235 349 -470 699 -235 351 -586 873 -779 1160 -194 288 -407 606 -475 708 -153 228 -255 338 -369 395 -238 120 -497 96 -715 -68 -99 -74 -125 -111 -480 -667 -143 -224 -395 -618 -558 -870 -65 -102 -140 -218 -165 -258 -26 -40 -106 -162 -177 -271 l-130 -200 -74 107 c-444 642 -498 717 -565 778 -120 112 -276 172 -416 161 -189 -15 -357 -115 -472 -282 -19 -27 -144 -203 -278 -390 -245 -343 -638 -893 -867 -1214 l-123 -174 3 2214 c3 1996 5 2221 20 2289 60 281 178 500 368 688 163 161 377 273 614 322 86 17 200 18 2576 19 2176 1 2497 -1 2566 -14z"/>
  <path d="M4195 11015 c-276 -51 -532 -256 -648 -522 -179 -406 -19 -896 366 -1125 190 -114 449 -150 669 -94 313 79 566 328 650 638 30 112 32 337 4 443 -104 397 -465 678 -864 674 -59 -1 -139 -7 -177 -14z"/>
  <path d="M8436 10991 c-9 -10 -30 -70 -45 -132 -35 -139 -49 -173 -101 -248 -70 -99 -169 -157 -347 -201 -120 -29 -147 -45 -158 -91 -5 -21 0 -33 22 -57 23 -25 47 -34 140 -55 61 -15 140 -40 174 -57 150 -76 244 -218 280 -424 13 -76 36 -106 83 -106 49 0 67 28 93 143 63 278 186 397 475 456 102 21 128 39 128 88 0 38 -37 83 -68 83 -11 0 -64 11 -118 25 -246 64 -359 185 -419 449 -13 60 -32 117 -41 127 -22 25 -76 25 -98 0z"/>
  <path d="M1430 3113 c-325 -30 -534 -120 -703 -303 -74 -80 -156 -231 -184 -340 -23 -87 -23 -263 0 -350 24 -93 89 -219 144 -280 130 -144 295 -220 701 -321 338 -83 450 -126 530 -202 88 -83 112 -216 60 -329 -71 -155 -254 -237 -497 -225 -255 13 -408 89 -555 275 -31 40 -71 82 -89 92 -123 76 -356 -71 -357 -224 -1 -151 265 -389 550 -491 188 -67 489 -93 705 -61 469 70 760 372 759 786 0 134 -15 203 -70 319 -38 81 -57 106 -127 175 -138 135 -261 190 -652 287 -132 33 -273 71 -313 85 -163 54 -261 124 -300 213 -23 53 -21 174 5 232 57 128 228 208 445 209 202 0 351 -57 490 -188 92 -87 121 -100 200 -89 52 7 139 67 181 125 42 57 49 139 18 200 -48 94 -196 224 -337 295 -144 73 -435 126 -604 110z"/>
  <path d="M3035 3100 c-34 -14 -83 -73 -94 -115 -16 -58 -15 -2449 0 -2496 15 -43 55 -88 96 -105 20 -9 68 -14 123 -14 124 0 180 24 219 95 14 26 17 93 22 555 5 506 6 527 27 583 51 137 113 212 216 261 157 74 377 54 488 -44 45 -39 95 -122 119 -195 10 -30 14 -181 18 -590 l6 -550 23 -38 c13 -21 38 -45 55 -54 40 -21 196 -30 254 -14 51 14 98 65 113 123 8 29 10 208 7 612 -5 659 -6 669 -97 854 -86 174 -221 288 -400 338 -30 8 -116 18 -190 21 -117 5 -146 3 -220 -16 -148 -37 -279 -111 -375 -210 l-40 -42 -5 468 -5 468 -24 39 c-41 65 -69 76 -201 75 -63 0 -124 -4 -135 -9z"/>
  <path d="M9725 3091 c-16 -10 -38 -27 -48 -39 -47 -52 -46 -24 -47 -1307 0 -815 4 -1222 11 -1248 14 -51 63 -104 107 -117 47 -13 187 -13 231 0 46 13 99 65 111 110 6 22 10 487 10 1261 l0 1226 -23 44 c-13 24 -38 54 -57 67 -29 20 -45 22 -149 22 -95 0 -121 -3 -146 -19z"/>
  <path d="M5788 2320 c-175 -38 -334 -125 -445 -244 -107 -114 -139 -215 -90 -287 30 -45 122 -91 192 -97 102 -8 121 0 220 102 120 124 157 139 340 140 97 1 144 -3 187 -17 128 -39 215 -155 226 -297 l5 -70 -294 -1 c-162 -1 -297 -1 -300 -1 -3 1 -51 -5 -105 -13 -374 -54 -589 -252 -610 -562 -19 -288 154 -520 451 -604 67 -19 105 -23 230 -23 106 0 167 5 210 16 153 41 259 98 354 190 l58 57 5 -64 c11 -130 70 -175 227 -175 117 0 166 20 200 80 l22 40 0 592 c0 368 -4 618 -10 659 -25 156 -86 275 -196 384 -115 115 -229 169 -420 200 -127 21 -348 18 -457 -5z m632 -1151 c0 -17 -7 -59 -16 -93 -60 -234 -257 -367 -527 -354 -87 4 -106 9 -165 39 -91 46 -126 101 -126 197 0 110 48 178 154 215 70 25 67 25 383 26 l297 1 0 -31z"/>
  <path d="M11150 2321 c-111 -26 -191 -54 -259 -92 -172 -97 -323 -281 -308 -376 14 -84 93 -146 205 -161 96 -13 138 4 213 88 79 89 131 123 220 145 85 21 244 16 326 -9 122 -38 206 -151 219 -293 l7 -71 -339 -4 c-307 -4 -348 -6 -438 -27 -240 -55 -382 -152 -468 -319 -49 -94 -63 -152 -63 -262 1 -177 47 -292 165 -411 55 -55 95 -85 150 -111 119 -58 184 -71 355 -72 176 -1 254 14 382 75 79 38 222 141 241 175 7 12 10 -1 14 -48 6 -76 26 -118 70 -149 26 -19 48 -24 125 -27 121 -6 156 2 203 44 62 56 62 64 58 704 -4 529 -6 571 -26 658 -62 275 -239 455 -520 529 -137 35 -405 42 -532 14z m620 -1152 c0 -46 -28 -146 -58 -207 -31 -64 -120 -149 -188 -182 -96 -45 -144 -54 -269 -55 -104 0 -127 3 -169 23 -108 49 -156 115 -156 212 0 114 65 190 191 224 41 11 124 15 352 15 l297 1 0 -31z"/>
  <path d="M7415 2281 c-46 -21 -69 -44 -86 -86 -14 -36 -21 -956 -8 -1130 21 -276 125 -484 299 -600 145 -96 293 -132 499 -122 207 10 357 75 505 217 l81 78 -3 -43 c-6 -64 22 -148 58 -179 45 -38 95 -48 201 -45 83 4 101 7 136 31 78 52 74 -7 71 945 l-3 848 -23 31 c-44 59 -74 69 -203 69 -108 0 -118 -2 -156 -27 -73 -48 -72 -41 -79 -550 -3 -249 -9 -480 -14 -514 -44 -281 -227 -444 -501 -444 -232 0 -361 112 -398 347 -7 46 -11 252 -11 566 l0 494 -23 43 c-36 68 -86 90 -206 90 -72 0 -106 -5 -136 -19z"/>
</g></svg>
